<?xml version="1.0" encoding="UTF-8" standalone="no"?>
<svg
   version="1.0"
   width="660.000000pt"
   height="661.000000pt"
   viewBox="0 0 660.000000 661.000000"
   preserveAspectRatio="xMidYMid meet"
   id="svg41"
   sodipodi:docname="Cocookies.svg"
   inkscape:version="1.4 (e7c3feb100, 2024-10-09)"
   xmlns:inkscape="http://www.inkscape.org/namespaces/inkscape"
   xmlns:sodipodi="http://sodipodi.sourceforge.net/DTD/sodipodi-0.dtd"
   xmlns="http://www.w3.org/2000/svg"
   xmlns:svg="http://www.w3.org/2000/svg">
  <defs
     id="defs41" />
  <sodipodi:namedview
     id="namedview41"
     pagecolor="#ffffff"
     bordercolor="#000000"
     borderopacity="0.25"
     inkscape:showpageshadow="2"
     inkscape:pageopacity="0.0"
     inkscape:pagecheckerboard="0"
     inkscape:deskcolor="#d1d1d1"
     inkscape:document-units="pt"
     inkscape:zoom="0.90771558"
     inkscape:cx="439.565"
     inkscape:cy="440.66667"
     inkscape:window-width="1920"
     inkscape:window-height="1011"
     inkscape:window-x="0"
     inkscape:window-y="0"
     inkscape:window-maximized="1"
     inkscape:current-layer="svg41" />
  <g
     transform="translate(0.000000,661.000000) scale(0.100000,-0.100000)"
     fill="#000000"
     stroke="none"
     id="g41">
    <path
       d="M5390 5970 c-43 -43 -17 -91 73 -136 69 -36 310 -272 356 -351 48 -80 70 -103 101 -103 35 0 60 28 60 67 0 86 -319 441 -460 511 -73 37 -102 40 -130 12z"
       id="path1" />
    <path
       d="M1081 5949 c-69 -40 -220 -185 -326 -314 -96 -117 -105 -132 -105 -178 0 -51 38 -79 84 -61 9 3 32 40 52 82 31 66 55 95 163 202 81 80 146 135 181 154 98 51 123 92 82 129 -28 25 -71 20 -131 -14z"
       id="path2" />
    <path
       d="M2100 5783 c-68 -27 -94 -109 -94 -293 1 -279 77 -517 158 -494 26 7 67 51 115 124 47 72 101 130 176 190 66 52 197 134 233 145 22 6 22 5 22 -90 0 -105 8 -131 46 -145 34 -13 70 3 90 41 13 27 15 49 9 139 l-7 106 40 12 c21 7 44 12 51 12 8 0 11 -51 11 -173 0 -171 0 -174 24 -196 27 -26 52 -23 82 10 17 18 20 43 24 197 5 163 6 177 24 180 10 2 22 -2 27 -10 5 -7 9 -84 9 -171 0 -93 4 -167 11 -178 14 -27 49 -39 77 -26 44 20 52 54 52 222 0 85 2 155 5 155 2 0 23 -7 45 -16 l40 -16 0 -123 c0 -109 2 -125 21 -149 27 -34 64 -32 92 6 15 20 21 48 25 122 2 53 7 96 9 96 14 0 115 -48 158 -75 70 -44 224 -200 273 -276 68 -106 70 -109 103 -109 50 0 83 46 123 168 48 150 60 226 53 357 -8 154 -21 208 -60 241 -29 24 -35 25 -96 19 -147 -16 -405 -99 -495 -160 -28 -19 -35 -20 -50 -9 -10 7 -47 22 -83 33 -197 62 -508 52 -700 -23 l-57 -22 -55 37 c-69 45 -189 92 -299 118 -92 22 -208 34 -232 24z m250 -189 c61 -16 150 -54 150 -63 -1 -3 -37 -30 -81 -60 -50 -33 -110 -87 -159 -141 -69 -77 -79 -85 -84 -66 -10 35 -19 300 -12 338 l7 36 62 -14 c34 -8 87 -21 117 -30z m1722 -31 c4 -157 -12 -323 -31 -323 -4 0 -13 11 -19 24 -19 43 -145 167 -220 218 -40 27 -72 54 -70 60 6 16 65 36 188 63 158 35 150 37 152 -42z"
       id="path3" />
    <path
       d="M4540 5640 c-39 -39 -12 -99 52 -115 21 -5 33 -1 52 19 34 33 33 69 0 95 -34 27 -78 27 -104 1z"
       id="path4" />
    <path
       d="M1527 5629 c-26 -15 -38 -54 -27 -84 13 -35 53 -49 89 -30 49 25 55 72 15 104 -29 23 -50 26 -77 10z"
       id="path5" />
    <path
       d="M5075 5381 c-191 -52 -328 -156 -452 -339 -89 -132 -136 -268 -153 -439 -14 -153 14 -419 64 -600 43 -158 85 -346 97 -438 16 -127 6 -341 -20 -425 -20 -63 -58 -136 -66 -128 -3 2 -14 51 -25 109 -48 246 -116 451 -207 619 -75 139 -182 290 -263 371 -84 85 -115 98 -156 66 -21 -16 -25 -27 -23 -61 2 -26 -4 -51 -15 -68 -35 -53 14 -90 75 -58 27 15 50 0 95 -61 29 -39 35 -55 27 -67 -5 -9 -50 -38 -98 -64 -49 -27 -93 -54 -97 -61 -16 -25 -8 -76 14 -91 32 -23 45 -21 164 24 59 22 112 40 118 40 7 0 24 -26 40 -57 33 -67 31 -70 -70 -103 -86 -29 -114 -52 -114 -96 0 -83 39 -92 178 -46 57 20 85 25 91 18 12 -15 41 -86 41 -101 0 -6 -29 -20 -65 -30 -70 -19 -95 -41 -95 -86 0 -47 28 -61 121 -58 l84 2 13 -54 c13 -57 29 -299 19 -299 -3 0 -21 26 -41 58 -36 60 -59 85 -88 95 -13 4 -15 2 -11 -10 5 -12 3 -14 -8 -8 -8 5 -4 -3 8 -16 53 -59 123 -166 129 -198 4 -18 4 -81 1 -140 -9 -184 -92 -411 -194 -533 l-47 -56 -11 42 c-23 89 -109 175 -220 218 -179 69 -419 -16 -508 -181 -38 -69 -67 -157 -67 -203 l0 -38 -194 0 c-202 0 -246 7 -246 37 0 10 40 59 88 108 153 157 238 290 306 478 55 151 70 241 70 412 0 167 -14 257 -65 403 -116 330 -342 582 -669 743 -183 91 -310 119 -527 120 -164 1 -247 -12 -403 -63 -324 -105 -614 -348 -759 -636 -45 -88 -97 -250 -116 -356 -18 -103 -20 -310 -4 -423 37 -270 212 -573 430 -745 49 -39 89 -74 89 -79 0 -5 -95 -9 -213 -9 -244 0 -257 -3 -257 -69 0 -24 7 -45 20 -59 24 -26 -4 -25 419 -12 l304 8 101 -29 c267 -78 463 -78 716 -1 l95 29 235 -7 c129 -4 649 -5 1155 -3 912 4 920 4 938 25 25 29 22 74 -8 103 l-24 25 -306 0 -307 0 44 51 c70 82 118 150 146 207 25 49 30 54 82 69 86 25 249 106 320 161 187 142 355 390 434 640 75 237 76 584 3 877 -43 171 -52 243 -51 410 0 142 3 166 23 218 28 71 65 109 160 166 118 70 193 158 231 272 58 169 -33 354 -221 450 -58 29 -73 33 -169 35 -58 2 -118 -1 -135 -5z m184 -142 c73 -15 135 -59 171 -121 29 -49 31 -59 28 -134 -4 -114 -26 -144 -160 -223 l-103 -60 -45 47 c-25 26 -103 96 -173 155 -70 59 -133 119 -139 133 -10 22 -8 28 23 60 53 54 128 102 204 129 77 27 119 30 194 14z m-417 -392 c51 -46 128 -121 171 -165 87 -92 90 -102 57 -197 -50 -146 -48 -388 6 -621 50 -216 58 -281 58 -479 1 -203 -4 -241 -56 -410 -33 -109 -76 -203 -134 -292 -50 -77 -184 -208 -272 -266 -73 -48 -149 -84 -158 -74 -3 3 2 29 11 59 11 34 19 107 22 208 l6 155 53 58 c61 66 121 182 155 297 27 94 37 337 20 462 -7 46 -38 191 -71 323 -56 229 -82 370 -96 516 -8 80 12 291 36 376 20 72 57 133 82 133 9 0 58 -38 110 -83z m-2457 -897 c391 -126 690 -424 790 -790 38 -136 44 -323 17 -480 -49 -285 -192 -523 -415 -691 -97 -73 -125 -88 -291 -151 -256 -96 -484 -102 -765 -18 -215 64 -356 160 -512 348 -137 166 -222 365 -240 567 -33 353 60 655 271 878 172 181 389 301 648 358 71 15 116 18 242 15 141 -4 164 -7 255 -36z m1495 -1844 c44 -18 95 -70 114 -118 17 -39 24 -123 12 -135 -11 -12 -486 -19 -497 -8 -27 28 7 143 59 198 29 31 90 66 137 78 41 11 133 3 175 -15z"
       id="path6" />
    <path
       d="M2343 3780 c-46 -19 -57 -88 -20 -132 35 -42 62 -45 98 -8 27 27 31 36 26 67 -10 58 -57 91 -104 73z"
       id="path7" />
    <path
       d="M1761 3718 c-52 -25 -96 -83 -116 -151 -20 -67 -19 -107 4 -167 44 -115 111 -164 226 -164 86 0 148 27 194 85 93 115 95 253 5 343 -75 75 -220 100 -313 54z"
       id="path8" />
    <path
       d="M1383 3628 c-26 -30 -34 -64 -22 -96 22 -56 76 -68 121 -25 39 38 38 83 -3 117 -38 32 -69 33 -96 4z"
       id="path9" />
    <path
       d="M2600 3461 c-110 -24 -200 -137 -200 -251 0 -135 135 -270 270 -270 52 0 131 31 172 68 171 154 75 433 -157 456 -27 2 -66 1 -85 -3z"
       id="path10" />
    <path
       d="M1280 3134 c-58 -25 -99 -63 -125 -115 -35 -68 -41 -124 -21 -193 55 -188 273 -239 415 -97 92 92 92 272 -1 358 -62 58 -190 81 -268 47z"
       id="path11" />
    <path
       d="M2004 2901 c-50 -23 -54 -33 -54 -126 0 -69 2 -75 31 -99 24 -21 41 -26 83 -26 61 0 92 18 112 66 27 64 9 160 -34 183 -40 21 -95 22 -138 2z"
       id="path12" />
    <path
       d="M2981 2854 c-42 -53 -11 -134 50 -134 39 0 89 48 89 85 0 67 -98 101 -139 49z"
       id="path13" />
    <path
       d="M2497 2633 c-66 -22 -122 -81 -144 -149 -52 -165 99 -353 264 -330 86 11 148 59 196 150 16 31 21 59 22 118 0 69 -3 80 -30 119 -46 66 -110 101 -192 105 -46 3 -84 -1 -116 -13z"
       id="path14" />
    <path
       d="M1733 2450 c-124 -25 -194 -108 -194 -229 0 -130 98 -236 228 -248 112 -10 187 30 229 122 51 108 20 252 -68 315 -32 24 -120 53 -146 49 -4 -1 -26 -5 -49 -9z"
       id="path15" />
    <path
       d="M1276 2357 c-47 -47 -21 -117 44 -117 35 0 80 38 80 68 0 30 -31 61 -67 68 -26 5 -37 1 -57 -19z"
       id="path16" />
    <path
       d="M1235 5252 c-88 -41 -165 -170 -150 -250 16 -84 86 -181 152 -208 78 -33 200 -1 257 67 65 76 87 189 52 258 -26 49 -76 100 -119 123 -58 29 -142 34 -192 10z m162 -154 c35 -33 47 -81 29 -116 -19 -36 -57 -62 -92 -62 -62 0 -124 54 -124 108 0 27 38 72 74 88 38 17 83 10 113 -18z"
       id="path17" />
    <path
       d="M3453 4961 c-42 -26 -63 -69 -63 -126 0 -37 6 -52 33 -81 64 -71 166 -48 195 43 36 111 -74 220 -165 164z"
       id="path18" />
    <path
       d="M2637 4950 c-32 -25 -51 -80 -42 -123 23 -108 116 -151 189 -86 60 52 61 142 4 198 -26 26 -40 31 -79 31 -31 0 -55 -6 -72 -20z"
       id="path19" />
    <path
       d="M3975 4829 c-160 -8 -194 -12 -215 -28 -36 -26 -38 -64 -4 -90 27 -21 35 -22 262 -19 232 3 234 3 253 27 26 32 25 77 -3 95 -34 22 -84 25 -293 15z"
       id="path20" />
    <path
       d="M1911 4804 c-11 -14 -21 -31 -21 -36 0 -20 31 -67 47 -72 10 -3 124 -6 254 -8 211 -3 238 -1 262 15 36 23 36 65 1 98 -25 24 -27 24 -273 27 l-248 4 -22 -28z"
       id="path21" />
    <path
       d="M2992 4714 c-35 -24 -29 -65 18 -119 47 -54 51 -85 15 -121 -20 -20 -33 -24 -70 -23 -51 3 -63 -5 -66 -41 -5 -54 1 -71 34 -91 40 -25 85 -20 140 17 35 23 43 25 61 14 50 -32 74 -40 119 -40 40 0 54 5 78 29 33 33 36 56 13 89 -11 16 -25 22 -55 22 -79 0 -117 80 -63 131 59 55 68 121 18 139 -43 17 -216 12 -242 -6z"
       id="path22" />
    <path
       d="M2240 4565 c-8 -2 -73 -9 -145 -15 -136 -13 -168 -24 -187 -65 -12 -27 7 -66 42 -85 18 -10 341 9 440 26 48 8 80 40 80 79 0 53 -24 65 -126 64 -49 -1 -96 -3 -104 -4z"
       id="path23" />
    <path
       d="M3750 4550 c-11 -11 -20 -33 -20 -50 0 -27 29 -70 48 -70 4 0 66 -7 137 -14 72 -8 171 -18 221 -22 l91 -6 34 30 c30 27 33 33 24 58 -18 49 -54 61 -247 78 -234 21 -263 21 -288 -4z"
       id="path24" />
    <path
       d="M1452 4448 c-19 -19 -15 -82 6 -101 43 -39 102 -7 102 55 0 46 -76 78 -108 46z"
       id="path25" />
    <path
       d="M1052 4417 c-28 -29 -28 -67 -1 -101 26 -33 68 -35 96 -3 32 34 35 58 13 95 -16 26 -26 32 -53 32 -22 0 -41 -8 -55 -23z"
       id="path26" />
    <path
       d="M5566 4269 c-50 -39 -18 -129 45 -129 37 0 79 40 79 75 0 33 -41 75 -73 75 -13 0 -36 -9 -51 -21z"
       id="path27" />
    <path
       d="M5622 3670 c-35 -15 -48 -54 -28 -85 26 -40 60 -51 90 -31 56 36 52 95 -7 116 -16 5 -30 10 -31 9 -1 0 -11 -4 -24 -9z"
       id="path28" />
    <path
       d="M5606 3201 c-40 -44 7 -113 67 -97 34 8 62 58 48 85 -20 36 -87 43 -115 12z"
       id="path29" />
    <path
       d="M5379 2710 c-65 -34 -116 -110 -139 -208 -15 -63 -7 -114 25 -163 33 -50 78 -69 167 -69 81 0 154 27 195 71 57 62 74 181 35 254 -25 48 -87 110 -125 124 -43 17 -118 12 -158 -9z m137 -124 c24 -20 28 -31 29 -76 0 -46 -3 -55 -27 -73 -31 -23 -142 -37 -160 -19 -7 7 3 34 32 89 24 43 47 84 53 91 15 19 43 14 73 -12z"
       id="path30" />
    <path
       d="M5036 1809 c-34 -27 -36 -77 -3 -107 20 -18 35 -22 96 -22 73 0 106 10 128 39 19 25 15 47 -13 80 -25 30 -29 31 -104 31 -63 0 -82 -4 -104 -21z"
       id="path31" />
    <path
       d="M5500 1823 c-53 -20 -67 -83 -27 -121 38 -36 124 -25 147 18 30 56 -54 127 -120 103z"
       id="path32" />
    <path
       d="M5262 1384 c-30 -20 -31 -88 -3 -104 23 -12 71 -13 88 -2 12 7 33 54 33 73 0 19 -41 49 -68 49 -15 0 -38 -7 -50 -16z"
       id="path33" />
    <path
       d="M5870 1213 c-6 -10 -22 -42 -38 -71 -41 -79 -239 -283 -339 -350 -88 -58 -105 -83 -84 -128 8 -19 18 -24 46 -24 45 0 79 17 154 80 88 73 338 347 362 397 19 38 19 44 5 71 -23 45 -86 59 -106 25z"
       id="path34" />
    <path
       d="M655 1200 c-33 -37 -23 -70 53 -176 96 -133 139 -178 256 -268 139 -108 194 -134 224 -104 13 13 16 56 6 83 -4 8 -27 30 -52 47 -70 48 -221 184 -270 242 -24 28 -61 81 -82 117 -22 37 -47 69 -56 73 -30 11 -61 6 -79 -14z"
       id="path35" />
    <path
       d="M1708 1185 c-25 -55 53 -104 82 -50 11 20 10 28 -4 50 -22 33 -62 34 -78 0z"
       id="path36" />
  </g>
</svg>
